<?xml version="1.0" encoding="UTF-8"?>
<svg width="96px" height="32px" viewBox="0 0 96 32" version="1.1" xmlns="http://www.w3.org/2000/svg" xmlns:xlink="http://www.w3.org/1999/xlink">
    <!-- Generator: Sketch 48.2 (47327) - http://www.bohemiancoding.com/sketch -->
    <title>Page 1</title>
    <desc>Created with Sketch.</desc>
    <defs>
        <polygon id="path-1" points="9.09952606e-05 31.5428571 95.6810616 31.5428571 95.6810616 0.181485714 9.09952606e-05 0.181485714 9.09952606e-05 31.5428571"></polygon>
    </defs>
    <g id="LANDING-PAGE" stroke="none" stroke-width="1" fill="none" fill-rule="evenodd" transform="translate(-164.000000, -13.000000)">
        <g id="Navigation-Copy" transform="translate(32.000000, 13.000000)">
            <g id="Page-1" transform="translate(132.000000, 0.000000)">
                <g id="Group-3" transform="translate(0.000000, 0.275657)">
                    <mask id="mask-2" fill="white">
                        <use xlink:href="#path-1"></use>
                    </mask>
                    <g id="Clip-2"></g>
                    <path d="M94.9386313,15.3319314 C95.5851526,14.4167314 95.8240152,13.27296 95.5978919,12.1739886 C95.3722237,11.07456 94.7015886,10.1200457 93.7475033,9.53673143 C90.9380246,7.82061714 87.2659109,6.79661714 83.9250199,6.79661714 C79.3770768,6.79661714 76.1039773,8.47478857 73.9919773,10.9054171 C71.7721479,8.37193143 68.5126976,6.79661714 64.819655,6.79661714 C62.016091,6.79661714 59.461854,7.70450286 57.4226502,9.24964571 C55.2041858,4.22838857 50.2167355,0.181302857 42.0890389,0.181302857 L30.8588588,0.181302857 C30.0967735,0.181302857 29.3865555,0.398445714 28.7791621,0.768274286 C28.1717687,0.398445714 27.4615507,0.181302857 26.6994654,0.181302857 L16.6008114,0.181302857 C16.1685839,0.181302857 15.7522806,0.250331429 15.3619109,0.37696 C14.9715412,0.250331429 14.5547829,0.181302857 14.1225555,0.181302857 L4.02390142,0.181302857 C1.80134218,0.181302857 9.09952607e-05,1.99158857 9.09952607e-05,4.22427429 L9.09952607e-05,14.1557029 C9.09952607e-05,18.4048457 0.500109953,23.2510171 4.20816682,26.9767314 C7.09681137,29.8782171 11.15611,31.5431314 15.3464417,31.5431314 C19.4976455,31.5431314 23.5241858,29.8896457 26.3928114,27.00736 C26.5452284,26.8542171 26.6908209,26.6965029 26.8350483,26.5383314 L26.8350483,27.1312457 C26.8350483,29.3634743 28.6362995,31.17376 30.8588588,31.17376 L41.8442616,31.17376 C47.7161858,31.17376 51.9724891,29.1335314 54.7510294,26.1570743 C56.9330957,29.3653029 60.5924701,31.4325029 64.819655,31.4325029 C68.5454559,31.4325029 71.8294749,29.8251886 74.0502142,27.24736 C74.2440341,27.4704457 74.4428588,27.6898743 74.6544227,27.9024457 C77.8033137,31.0663314 82.3335128,31.4325029 85.4673896,31.4325029 C86.5411336,31.4325029 90.0744796,31.2720457 91.5049251,31.1888457 C93.6328493,31.0645029 95.2957877,29.2944457 95.2957877,27.1522743 L95.2957877,18.5013029 C95.2957877,17.5669029 94.9800341,16.7070171 94.4508967,16.0226743 L94.9386313,15.3319314 Z" id="Fill-1" fill="#2D2424" mask="url(#mask-2)"></path>
                </g>
                <path d="M26.6995109,14.8928457 C26.6995109,19.3815314 25.6589801,22.3026743 23.5474351,24.4242743 C21.1606294,26.8224457 18.0699754,27.7755886 15.3460322,27.7755886 C12.469672,27.7755886 9.31805118,26.6688457 7.05317915,24.3931886 C4.66637346,21.9950171 4.02394692,18.7671314 4.02394692,14.4311314 L4.02394692,4.50016 L14.122146,4.50016 L14.122146,15.1077029 C14.122146,16.6455314 14.1835678,17.7211886 15.3155488,17.7211886 C16.3255962,17.7211886 16.6008569,17.0144457 16.6008569,14.1550171 L16.6008569,4.50016 L26.6995109,4.50016 L26.6995109,14.8928457 Z" id="Fill-4" fill="#B96613"></path>
                <path d="M40.9570578,18.6437486 L41.2018351,18.6437486 C43.6191242,18.6437486 44.659655,17.8446629 44.659655,15.9072914 C44.659655,14.3392914 43.7719962,13.26272 41.5994844,13.26272 L40.9570578,13.26272 L40.9570578,18.6437486 Z M42.0890389,4.50020571 C51.6976834,4.50020571 54.757854,11.23392 54.757854,15.9996343 C54.757854,20.6423771 51.820527,27.40672 41.8442616,27.40672 L30.8588588,27.40672 L30.8588588,4.50020571 L42.0890389,4.50020571 Z" id="Fill-6" fill="#FFD300"></path>
                <path d="M64.819564,20.6276571 C65.740891,20.6276571 66.4047014,19.9172571 66.4047014,18.9485714 C66.4047014,17.9803429 65.740891,17.2699429 64.819564,17.2699429 C63.8986919,17.2699429 63.2344265,17.9803429 63.2344265,18.9485714 C63.2344265,19.9172571 63.8986919,20.6276571 64.819564,20.6276571 M64.819564,11.1149714 C69.4034502,11.1149714 73.0018578,14.752 73.0018578,19.3796571 C73.0018578,24.0278857 69.4034502,27.6649143 64.819564,27.6649143 C60.2356777,27.6649143 56.6372701,24.0278857 56.6372701,19.3796571 C56.6372701,14.752 60.2356777,11.1149714 64.819564,11.1149714" id="Fill-8" fill="#FFD300"></path>
                <path d="M88.2519355,18.0879543 C86.8810919,17.4209829 85.5316322,17.0548114 84.3109308,17.0548114 C82.7044095,17.0548114 81.6547791,17.95904 81.6547791,19.3359543 C81.6547791,20.6703543 82.4901156,21.2948114 84.2040114,21.2948114 L84.2040114,18.7768686 L91.2716133,18.7768686 L91.2716133,27.4282971 C89.7938502,27.51424 86.3883526,27.66464 85.4674806,27.66464 C81.9759924,27.66464 79.2343052,27.0625829 77.4994806,25.31904 C75.8501915,23.6618971 75.0576227,21.6175543 75.0576227,19.3359543 C75.0576227,15.3546971 77.6277839,11.1151543 83.9251109,11.1151543 C86.5380398,11.1151543 89.472637,11.9329829 91.6574332,13.2673829 L88.2519355,18.0879543 Z" id="Fill-10" fill="#FFD300"></path>
            </g>
        </g>
    </g>
</svg>